# xmcd CD database file
#
# Track frame offsets:
#	150
#	10247
#	24937
#	35437
#	50355
#	62135
#	76835
#	92252
#	106322
#	119232
#	130560
#
# Disc length: 1960 seconds
#
# Revision: 3
# Processed by: cddbd v1.5.2PL0 Copyright (c) Steve Scherf et al.
# Submitted via: CDex 1.70beta2
#
DISCID=7e07a60b
DTITLE=David John and the Comstock Cowboys - Runaway Train
DYEAR=1996
DGENRE=Country
TTITLE0=Runaway Train
TTITLE1=Stranger Lost in Time
TTITLE2=It's Been a Blue Blue Day
TTITLE3=Village Burial Ground
TTITLE4=Blue Moon
TTITLE5=Roseville Fair
TTITLE6=The Man on Calvary
TTITLE7=The Traveling Medicine Show
TTITLE8=A Light on the Mountain
TTITLE9=Running Gun
TTITLE10=Blue Kentucky Rain
EXTD=YEAR: 1996
EXTT0=
EXTT1=
EXTT2=
EXTT3=
EXTT4=
EXTT5=
EXTT6=
EXTT7=
EXTT8=
EXTT9=
EXTT10=
PLAYORDER=
